<?xml version="1.0" encoding="UTF-8" standalone="no"?>
<svg width="17px" height="13px" viewBox="0 0 17 13" version="1.1" xmlns="http://www.w3.org/2000/svg" xmlns:xlink="http://www.w3.org/1999/xlink">
    <!-- Generator: Sketch 3.8.3 (29802) - http://www.bohemiancoding.com/sketch -->
    <title>twi</title>
    <desc>Created with Sketch.</desc>
    <defs></defs>
    <g id="Page-1" stroke="none" stroke-width="1" fill="none" fill-rule="evenodd">
        <g id="public_page_320" transform="translate(-260.000000, -3346.000000)" fill="#8C9399">
            <g id="footer" transform="translate(0.000000, 3320.000000)">
                <path d="M276.5,27.5392398 C275.911111,27.8000752 275.278222,27.9764835 274.614667,28.0555783 C275.293333,27.6494394 275.813778,27.0069046 276.057778,26.2408395 C275.423111,26.6167624 274.721778,26.8895953 273.972444,27.0357875 C273.375556,26.3981406 272.521333,26 271.576889,26 C269.764889,26 268.295111,27.4694763 268.295111,29.2815491 C268.295111,29.539274 268.323111,29.7890005 268.38,30.0289513 C265.652444,29.8916462 263.233778,28.5865805 261.613333,26.5998769 C261.330667,27.0859995 261.169778,27.6494394 261.169778,28.2510938 C261.169778,29.3886382 261.749333,30.393321 262.629333,30.9825335 C262.092444,30.9660924 261.585333,30.8172341 261.141778,30.5728398 L261.141778,30.6128316 C261.141778,32.2040607 262.273778,33.5304553 263.776,33.8308381 C263.500889,33.9077112 263.211556,33.94637 262.911111,33.94637 C262.699556,33.94637 262.493778,33.9268184 262.293778,33.8881597 C262.711556,35.1918923 263.922667,36.1410309 265.36,36.166359 C264.236,37.0470673 262.82,37.5714042 261.283111,37.5714042 C261.018222,37.5714042 260.756444,37.5567405 260.5,37.5260801 C261.952889,38.4565559 263.678222,39 265.531111,39 C271.570667,39 274.871111,34.0001367 274.871111,29.6628042 C274.871111,29.5201668 274.868444,29.3779737 274.862222,29.2380025 C275.504,28.7749863 276.061778,28.1968827 276.5,27.5392398" id="twi"></path>
            </g>
        </g>
    </g>
</svg>