<?xml version="1.0" encoding="UTF-8" standalone="no"?>
<svg width="9px" height="16px" viewBox="0 0 9 16" version="1.1" xmlns="http://www.w3.org/2000/svg" xmlns:xlink="http://www.w3.org/1999/xlink">
    <!-- Generator: Sketch 3.8.3 (29802) - http://www.bohemiancoding.com/sketch -->
    <title>fb</title>
    <desc>Created with Sketch.</desc>
    <defs></defs>
    <g id="Page-1" stroke="none" stroke-width="1" fill="none" fill-rule="evenodd">
        <g id="public_page_320" transform="translate(-294.000000, -3343.000000)" fill="#8C9399">
            <g id="footer" transform="translate(0.000000, 3320.000000)">
                <path d="M294.5,28.2911111 L296.213858,28.2911111 L296.213858,26.684 C296.213858,25.9746667 296.232282,24.8813333 296.765646,24.204 C297.328027,23.4871111 298.099516,23 299.426939,23 C301.589412,23 302.5,23.2973333 302.5,23.2973333 L302.07119,25.7484444 C302.07119,25.7484444 301.357274,25.5484444 300.6908,25.5484444 C300.023864,25.5484444 299.426939,25.7791111 299.426939,26.4222222 L299.426939,28.2911111 L302.160545,28.2911111 L301.96986,30.6848889 L299.426939,30.6848889 L299.426939,39 L296.213858,39 L296.213858,30.6848889 L294.5,30.6848889 L294.5,28.2911111" id="fb"></path>
            </g>
        </g>
    </g>
</svg>