<?xml version="1.0" encoding="UTF-8" standalone="no"?>
<svg width="36px" height="36px" viewBox="0 0 36 36" version="1.1" xmlns="http://www.w3.org/2000/svg" xmlns:xlink="http://www.w3.org/1999/xlink">
    <!-- Generator: Sketch 3.8.3 (29802) - http://www.bohemiancoding.com/sketch -->
    <title>twitter</title>
    <desc>Created with Sketch.</desc>
    <defs></defs>
    <g id="Page-1" stroke="none" stroke-width="1" fill="none" fill-rule="evenodd">
        <g id="public_page_share_320" transform="translate(-114.000000, -324.000000)">
            <g id="popup" transform="translate(20.000000, 178.000000)">
                <g id="social" transform="translate(38.000000, 146.000000)">
                    <g id="twitter" transform="translate(56.000000, 0.000000)">
                        <rect id="Rectangle" x="0" y="0" width="36" height="36"></rect>
                        <circle id="Oval" fill="#29A9E1" cx="18" cy="18" r="18"></circle>
                        <path d="M24.9759401,12.9646895 C25.7040772,12.5051935 26.2627863,11.7765945 26.5249964,10.9086576 C25.8432503,11.3351805 25.0899006,11.6436385 24.2861259,11.8106312 C23.6447198,11.0873505 22.7279931,10.6363636 21.7134419,10.6363636 C19.7670365,10.6363636 18.1897421,12.300973 18.1897421,14.353814 C18.1897421,14.6452536 18.2189886,14.9292477 18.2794986,15.200478 C15.350814,15.0451854 12.7539259,13.5667144 11.0142631,11.3160348 C10.7107045,11.8670046 10.5372425,12.5051935 10.5372425,13.1859283 C10.5372425,14.4750699 11.1594871,15.6131735 12.1054603,16.2811445 C11.5275897,16.2619989 10.9840081,16.0928788 10.507996,15.8163303 L10.507996,15.8620672 C10.507996,17.6638872 11.7222302,19.1668221 13.3368391,19.5071895 C13.04034,19.5944086 12.7297219,19.6380182 12.4070019,19.6380182 C12.1800893,19.6380182 11.9582193,19.6156816 11.7444172,19.572072 C12.1921913,21.0484157 13.4941651,22.1248276 15.0371704,22.1535462 C13.8299957,23.1512481 12.3101859,23.7447638 10.659271,23.7447638 C10.3748739,23.7447638 10.0935024,23.7288091 9.81818182,23.6937087 C11.3783317,24.7477841 13.2309465,25.3636364 15.221726,25.3636364 C21.7063824,25.3636364 25.2502521,19.6986461 25.2502521,14.7856552 C25.2502521,14.6239807 25.2482351,14.4633698 25.2411756,14.3048862 C25.9299813,13.7805077 26.5290304,13.1253004 27,12.379683 C26.3676704,12.6753772 25.6879412,12.8753431 24.9759401,12.9646895 Z" id="Shape" fill="#FFFFFF"></path>
                    </g>
                </g>
            </g>
        </g>
    </g>
</svg>