<?xml version="1.0" encoding="UTF-8" standalone="no"?>
<svg width="36px" height="36px" viewBox="0 0 36 36" version="1.1" xmlns="http://www.w3.org/2000/svg" xmlns:xlink="http://www.w3.org/1999/xlink">
    <!-- Generator: Sketch 3.8.3 (29802) - http://www.bohemiancoding.com/sketch -->
    <title>vk</title>
    <desc>Created with Sketch.</desc>
    <defs></defs>
    <g id="Page-1" stroke="none" stroke-width="1" fill="none" fill-rule="evenodd">
        <g id="public_page_share_320" transform="translate(-170.000000, -324.000000)">
            <g id="popup" transform="translate(20.000000, 178.000000)">
                <g id="social" transform="translate(38.000000, 146.000000)">
                    <g id="vk" transform="translate(112.000000, 0.000000)">
                        <rect id="Rectangle" x="0" y="0" width="36" height="36"></rect>
                        <circle id="Oval" fill="#5A7BA0" cx="18" cy="18" r="18"></circle>
                        <path d="M18.98083,23.9540235 C18.98083,23.9540235 19.3417861,23.9153584 19.526666,23.7239188 C19.6958948,23.5485111 19.6900256,23.2174998 19.6900256,23.2174998 C19.6900256,23.2174998 19.6675269,21.6718374 20.4119377,21.4436188 C21.1455883,21.2191724 22.0875956,22.9383564 23.0873168,23.5994359 C23.8424877,24.0992535 24.4157134,23.9898595 24.4157134,23.9898595 L27.0871796,23.9540235 C27.0871796,23.9540235 28.4840503,23.8710349 27.8218084,22.8119874 C27.7670291,22.7252266 27.4354191,22.0283111 25.8360609,20.5967581 C24.160403,19.0982483 24.3853891,19.3406127 26.4024391,16.7481625 C27.6310592,15.1694933 28.122116,14.205694 27.9685385,13.7935803 C27.8227866,13.3993845 26.9189291,13.5040633 26.9189291,13.5040633 L23.91194,13.5219813 C23.91194,13.5219813 23.6889102,13.4927466 23.5235943,13.5879949 C23.3621912,13.6813571 23.2575237,13.8992021 23.2575237,13.8992021 C23.2575237,13.8992021 22.7821181,15.1204546 22.1472658,16.159698 C20.808109,18.351351 20.2730332,18.4673464 20.0539162,18.3315469 C19.5442736,18.0137384 19.6714397,17.0565405 19.6714397,16.3765999 C19.6714397,14.2519036 20.0059844,13.3663777 19.0209362,13.137216 C18.6942172,13.0608288 18.4535798,13.010847 17.6172182,13.0023595 C16.544132,12.991986 15.6363617,13.0061318 15.1218281,13.2484961 C14.7794578,13.4097581 14.5153436,13.770004 14.6767467,13.7907511 C14.8753215,13.8162135 15.3252938,13.9076896 15.5639748,14.2207829 C15.872108,14.6253522 15.8613478,15.5325683 15.8613478,15.5325683 C15.8613478,15.5325683 16.0384022,18.0335425 15.4475689,18.3438066 C15.0425938,18.5569364 14.4869758,18.1221894 13.2925927,16.1332925 C12.6812172,15.1147962 12.2195064,13.988792 12.2195064,13.988792 C12.2195064,13.988792 12.1304902,13.7784914 11.9710435,13.6653252 C11.7783379,13.5285826 11.5093327,13.4861453 11.5093327,13.4861453 L8.65200831,13.5040633 C8.65200831,13.5040633 8.22257818,13.5153799 8.06508786,13.6955028 C7.92520516,13.8548786 8.05432765,14.1858899 8.05432765,14.1858899 C8.05432765,14.1858899 10.2914728,19.2321617 12.8250127,21.7755732 C15.1482395,24.106798 17.7854687,23.9540235 17.7854687,23.9540235 L18.98083,23.9540235 Z" id="Shape" fill="#F0F5FA"></path>
                    </g>
                </g>
            </g>
        </g>
    </g>
</svg>