<?xml version="1.0" encoding="UTF-8" standalone="no"?>
<svg width="36px" height="36px" viewBox="0 0 36 36" version="1.1" xmlns="http://www.w3.org/2000/svg" xmlns:xlink="http://www.w3.org/1999/xlink">
    <!-- Generator: Sketch 3.8.3 (29802) - http://www.bohemiancoding.com/sketch -->
    <title>vk copy</title>
    <desc>Created with Sketch.</desc>
    <defs></defs>
    <g id="Page-1" stroke="none" stroke-width="1" fill="none" fill-rule="evenodd">
        <g id="public_page_share_320" transform="translate(-226.000000, -324.000000)">
            <g id="popup" transform="translate(20.000000, 178.000000)">
                <g id="social" transform="translate(38.000000, 146.000000)">
                    <g id="vk-copy" transform="translate(168.000000, 0.000000)">
                        <rect id="Rectangle" x="0" y="0" width="36" height="36"></rect>
                        <circle id="Oval" fill="#007BB8" cx="18" cy="18" r="18"></circle>
                        <path d="M10.4035748,13.1304905 L13.5221072,13.1304905 L13.5221072,23.9989755 L10.4035748,23.9989755 L10.4035748,13.1304905 Z M11.883349,11.7710334 L11.8607714,11.7710334 C10.7318909,11.7710334 10,10.9401972 10,9.88807786 C10,8.81444487 10.7535278,8 11.9049859,8 C13.0555033,8 13.7629351,8.81239595 13.7855127,9.88500448 C13.7855127,10.9371238 13.0555033,11.7710334 11.883349,11.7710334 L11.883349,11.7710334 Z M26,24 L22.4637817,24 L22.4637817,18.3746959 C22.4637817,16.9025483 21.9106303,15.8985786 20.6942615,15.8985786 C19.7638758,15.8985786 19.2464722,16.5757459 19.0056444,17.2303752 C18.915334,17.4639519 18.929445,17.7907543 18.929445,18.1185811 L18.929445,24 L15.4261524,24 C15.4261524,24 15.4713076,14.0361122 15.4261524,13.1304905 L18.929445,13.1304905 L18.929445,14.8362146 C19.1364064,14.0904085 20.2558796,13.0259956 22.042333,13.0259956 C24.2587018,13.0259956 26,14.5903445 26,17.9556922 L26,24 L26,24 Z" id="Shape" fill="#FFFFFF"></path>
                    </g>
                </g>
            </g>
        </g>
    </g>
</svg>