<svg width="48" height="48" viewBox="0 0 48 48" xmlns="http://www.w3.org/2000/svg" xmlns:xlink="http://www.w3.org/1999/xlink"><title>protected</title><defs><rect id="a" x="2" width="8" height="7" rx="1"/><mask id="b" x="0" y="0" width="8" height="7" fill="#fff"><use xlink:href="#a"/></mask></defs><g fill="none" fill-rule="evenodd"><path d="M0 0h42.999A4.998 4.998 0 0 1 48 5.001V48L0 0z" fill="#3C434A"/><g transform="translate(29 6)"><path d="M0 5.995C0 5.445.456 5 1.002 5h9.996C11.55 5 12 5.456 12 5.995v8.01c0 .55-.456.995-1.002.995H1.002A1.005 1.005 0 0 1 0 14.005v-8.01zM5 8h2v4H5V8z" fill="#FFF"/><use stroke="#FFF" mask="url(#b)" stroke-width="4" xlink:href="#a"/></g></g></svg>