<svg width="40" height="40" viewBox="0 0 40 40" xmlns="http://www.w3.org/2000/svg"><title>priority</title><g fill="none" fill-rule="evenodd"><path d="M0 0h34.995A5.002 5.002 0 0 1 40 5.005V40L0 0z" fill="#EF4B2B"/><path d="M28.44 14.776l-3.297 2.295c-.91.633-1.39.295-1.066-.774l1.163-3.846-3.201-2.427c-.883-.67-.71-1.23.407-1.253l4.017-.081 1.319-3.795c.364-1.047.95-1.055 1.317 0l1.32 3.795 4.016.081c1.108.023 1.297.578.407 1.253l-3.202 2.427 1.164 3.846c.32 1.06-.149 1.412-1.066.774l-3.298-2.295z" fill="#FFF"/></g></svg>