<svg width="17" height="13" viewBox="0 0 17 13" xmlns="http://www.w3.org/2000/svg"><title>twi</title><path d="M16.5 1.54a6.568 6.568 0 0 1-1.885.516A3.282 3.282 0 0 0 16.058.24a6.545 6.545 0 0 1-2.086.795A3.282 3.282 0 0 0 8.38 4.029 9.323 9.323 0 0 1 1.613.599 3.283 3.283 0 0 0 2.63 4.983a3.29 3.29 0 0 1-1.487-.41v.04a3.283 3.283 0 0 0 2.634 3.219 3.205 3.205 0 0 1-.865.115c-.211 0-.417-.02-.617-.058a3.282 3.282 0 0 0 3.066 2.278 6.588 6.588 0 0 1-4.077 1.405c-.265 0-.527-.014-.783-.045A9.298 9.298 0 0 0 5.531 13c6.04 0 9.34-5 9.34-9.337 0-.143-.003-.285-.009-.425A6.643 6.643 0 0 0 16.5 1.539" fill="#8C9399" fill-rule="evenodd"/></svg>