<svg width="36" height="36" viewBox="0 0 36 36" xmlns="http://www.w3.org/2000/svg"><title>twitter</title><g fill="none" fill-rule="evenodd"><path d="M0 0h36v36H0z"/><circle fill="#29A9E1" cx="18" cy="18" r="18"/><path d="M24.976 12.965a3.69 3.69 0 0 0 1.549-2.056 6.836 6.836 0 0 1-2.239.902 3.431 3.431 0 0 0-2.573-1.175c-1.946 0-3.523 1.665-3.523 3.718 0 .291.029.575.09.846-2.93-.155-5.526-1.633-7.266-3.884a3.865 3.865 0 0 0-.477 1.87c0 1.29.622 2.427 1.568 3.095a3.399 3.399 0 0 1-1.597-.465v.046c0 1.802 1.214 3.305 2.829 3.645a3.291 3.291 0 0 1-.93.131c-.227 0-.449-.022-.663-.066.448 1.476 1.75 2.553 3.293 2.582a6.843 6.843 0 0 1-5.219 1.54 9.612 9.612 0 0 0 5.404 1.67c6.484 0 10.028-5.665 10.028-10.578 0-.162-.002-.323-.009-.481A7.369 7.369 0 0 0 27 12.38a6.756 6.756 0 0 1-2.024.585z" fill="#FFF"/></g></svg>