<svg width="36" height="36" viewBox="0 0 36 36" xmlns="http://www.w3.org/2000/svg"><title>vk</title><g fill="none" fill-rule="evenodd"><path d="M0 0h36v36H0z"/><circle fill="#5A7BA0" cx="18" cy="18" r="18"/><path d="M18.98 23.954s.362-.039.547-.23c.169-.175.163-.507.163-.507s-.022-1.545.722-1.773c.734-.225 1.676 1.494 2.675 2.155.755.5 1.329.39 1.329.39l2.671-.035s1.397-.083.735-1.142c-.055-.087-.387-.784-1.986-2.215-1.676-1.499-1.45-1.256.566-3.849 1.23-1.579 1.72-2.542 1.567-2.954-.146-.395-1.05-.29-1.05-.29l-3.007.018s-.223-.03-.388.066c-.162.093-.266.311-.266.311s-.476 1.221-1.11 2.26c-1.34 2.192-1.875 2.308-2.094 2.173-.51-.318-.383-1.275-.383-1.955 0-2.125.335-3.01-.65-3.24-.327-.076-.567-.126-1.404-.135-1.073-.01-1.98.004-2.495.246-.343.162-.607.522-.445.543.198.025.648.117.887.43.308.404.297 1.312.297 1.312s.177 2.5-.413 2.81c-.405.214-.961-.22-2.155-2.21a18.2 18.2 0 0 1-1.073-2.144s-.09-.21-.249-.324a1.259 1.259 0 0 0-.462-.179l-2.857.018s-.43.011-.587.192c-.14.159-.01.49-.01.49s2.236 5.046 4.77 7.59c2.323 2.33 4.96 2.178 4.96 2.178h1.196z" fill="#F0F5FA"/></g></svg>