<svg width="36" height="36" viewBox="0 0 36 36" xmlns="http://www.w3.org/2000/svg"><title>vk copy</title><g fill="none" fill-rule="evenodd"><path d="M0 0h36v36H0z"/><circle fill="#007BB8" cx="18" cy="18" r="18"/><path d="M10.404 13.13h3.118V24h-3.118V13.13zm1.48-1.359h-.023c-1.13 0-1.861-.83-1.861-1.883C10 8.814 10.754 8 11.905 8c1.15 0 1.858.812 1.88 1.885 0 1.052-.73 1.886-1.902 1.886zM26 24h-3.536v-5.625c0-1.472-.553-2.476-1.77-2.476-.93 0-1.448.677-1.688 1.331-.09.234-.077.56-.077.889V24h-3.503s.045-9.964 0-10.87h3.503v1.706c.207-.746 1.327-1.81 3.113-1.81 2.217 0 3.958 1.564 3.958 4.93V24z" fill="#FFF"/></g></svg>