<?xml version="1.0" encoding="UTF-8" standalone="no"?>
<svg width="14px" height="14px" viewBox="0 0 14 14" version="1.1" xmlns="http://www.w3.org/2000/svg" xmlns:xlink="http://www.w3.org/1999/xlink">
    <!-- Generator: Sketch 3.8.3 (29802) - http://www.bohemiancoding.com/sketch -->
    <title>share</title>
    <desc>Created with Sketch.</desc>
    <defs></defs>
    <g id="Page-1" stroke="none" stroke-width="1" fill="none" fill-rule="evenodd">
        <g id="public_page_320" transform="translate(-209.000000, -185.000000)" fill="#37B7EC">
            <g id="share" transform="translate(168.000000, 176.000000)">
                <path d="M45.3513124,15.8855467 C45.3669165,15.7801277 45.375,15.6722579 45.375,15.5625 C45.375,15.4899925 45.3714723,15.418309 45.3645791,15.3476117 L51.3803366,12.8410461 C51.7640769,13.1736997 52.2647804,13.375 52.8125,13.375 C54.0206229,13.375 55,12.3956229 55,11.1875 C55,9.97937711 54.0206229,9 52.8125,9 C51.6043771,9 50.625,9.97937711 50.625,11.1875 C50.625,11.2118955 50.6253993,11.2361977 50.6261918,11.2604004 L44.5005484,13.8127518 C44.134853,13.5378886 43.6801988,13.375 43.1875,13.375 C41.9793771,13.375 41,14.3543771 41,15.5625 C41,16.7706229 41.9793771,17.75 43.1875,17.75 C43.6427609,17.75 44.0655391,17.6109252 44.4156673,17.3729431 L50.6486876,20.4894533 C50.6330835,20.5948723 50.625,20.7027421 50.625,20.8125 C50.625,22.0206229 51.6043771,23 52.8125,23 C54.0206229,23 55,22.0206229 55,20.8125 C55,19.6043771 54.0206229,18.625 52.8125,18.625 C52.3572391,18.625 51.9344609,18.7640748 51.5843327,19.0020569 L45.3513124,15.8855467 Z"></path>
            </g>
        </g>
    </g>
</svg>