<?xml version="1.0" encoding="UTF-8" standalone="no"?>
<svg width="18px" height="20px" viewBox="0 0 18 20" version="1.1" xmlns="http://www.w3.org/2000/svg" xmlns:xlink="http://www.w3.org/1999/xlink">
    <!-- Generator: Sketch 3.8.3 (29802) - http://www.bohemiancoding.com/sketch -->
    <title>calendar</title>
    <desc>Created with Sketch.</desc>
    <defs></defs>
    <g id="Page-1" stroke="none" stroke-width="1" fill="none" fill-rule="evenodd">
        <g id="public_page_320" transform="translate(-28.000000, -1391.000000)" fill="#A6AEB6">
            <g id="4" transform="translate(12.000000, 844.000000)">
                <g id="calendar" transform="translate(16.000000, 547.000000)">
                    <path d="M6,2 L12,2 L12,0 L14,0 L14,2 L16.0049107,2 C17.1067681,2 18,2.8926228 18,3.99508929 L18,18.0049107 C18,19.1067681 17.1073772,20 16.0049107,20 L1.99508929,20 C0.893231902,20 0,19.1073772 0,18.0049107 L0,3.99508929 C0,2.8932319 0.892622799,2 1.99508929,2 L4,2 L4,0 L6,0 L6,2 Z M12,2 L14,2 L14,4 L12,4 L12,2 Z M6,2 L4,2 L4,4 L6,4 L6,2 Z M2,8 L16,8 L16,18 L2,18 L2,8 Z" id="Rectangle"></path>
                    <rect id="Rectangle-314" x="10" y="12" width="4" height="4"></rect>
                </g>
            </g>
        </g>
    </g>
</svg>