<?xml version="1.0" encoding="UTF-8" standalone="no"?>
<svg width="16px" height="14px" viewBox="0 0 16 14" version="1.1" xmlns="http://www.w3.org/2000/svg" xmlns:xlink="http://www.w3.org/1999/xlink">
    <!-- Generator: Sketch 3.8.3 (29802) - http://www.bohemiancoding.com/sketch -->
    <title>list</title>
    <desc>Created with Sketch.</desc>
    <defs></defs>
    <g id="Page-1" stroke="none" stroke-width="1" fill="none" fill-rule="evenodd">
        <g id="public_page_320" transform="translate(-28.000000, -717.000000)" fill="#A6AEB6">
            <g id="2" transform="translate(12.000000, 634.000000)">
                <g transform="translate(16.000000, 81.500000)" id="list">
                    <path d="M2,5.5 C3.1045695,5.5 4,4.6045695 4,3.5 C4,2.3954305 3.1045695,1.5 2,1.5 C0.8954305,1.5 0,2.3954305 0,3.5 C0,4.6045695 0.8954305,5.5 2,5.5 Z M2,10.5 C3.1045695,10.5 4,9.6045695 4,8.5 C4,7.3954305 3.1045695,6.5 2,6.5 C0.8954305,6.5 0,7.3954305 0,8.5 C0,9.6045695 0.8954305,10.5 2,10.5 Z M2,15.5 C3.1045695,15.5 4,14.6045695 4,13.5 C4,12.3954305 3.1045695,11.5 2,11.5 C0.8954305,11.5 0,12.3954305 0,13.5 C0,14.6045695 0.8954305,15.5 2,15.5 Z M6,2.5 L16,2.5 L16,4.5 L6,4.5 L6,2.5 Z M6,7.5 L16,7.5 L16,9.5 L6,9.5 L6,7.5 Z M6,12.5 L16,12.5 L16,14.5 L6,14.5 L6,12.5 Z"></path>
                </g>
            </g>
        </g>
    </g>
</svg>