<?xml version="1.0" encoding="UTF-8" standalone="no"?>
<svg width="44px" height="44px" viewBox="0 0 44 44" version="1.1" xmlns="http://www.w3.org/2000/svg" xmlns:xlink="http://www.w3.org/1999/xlink">
    <!-- Generator: Sketch 3.8.3 (29802) - http://www.bohemiancoding.com/sketch -->
    <title>priority</title>
    <desc>Created with Sketch.</desc>
    <defs></defs>
    <g id="Page-1" stroke="none" stroke-width="1" fill="none" fill-rule="evenodd">
        <g id="public_page_768" transform="translate(-700.000000, -245.000000)">
            <g id="1" transform="translate(24.000000, 245.000000)">
                <g id="priority" transform="translate(676.000000, 0.000000)">
                    <path d="M0,0 L38.9954787,0 C41.7593995,0 44,2.24245787 44,5.00452127 L44,44 L0,0 Z" id="corner" fill="#EF4B2B"></path>
                    <path d="M31.4404914,15.7763769 L28.1425904,18.0712585 C27.2333248,18.7039812 26.7535928,18.3661903 27.0770367,17.2970884 L28.2404914,13.4514408 L25.0388219,11.024108 C24.1560883,10.3548672 24.3291012,9.79423173 25.4458271,9.77147457 L29.4627826,9.68961521 L30.781943,5.89455948 C31.1456492,4.84822317 31.7323091,4.83952232 32.0990397,5.89455948 L33.4182001,9.68961521 L37.4351556,9.77147457 C38.5426719,9.79404405 38.7322348,10.349302 37.8421609,11.024108 L34.6404914,13.4514408 L35.803946,17.2970884 C36.1247225,18.3573734 35.6552189,18.7092426 34.7383923,18.0712585 L31.4404914,15.7763769 Z" id="star" fill="#FFFFFF"></path>
                </g>
            </g>
        </g>
    </g>
</svg>