<?xml version="1.0" encoding="UTF-8" standalone="no"?>
<svg width="40px" height="40px" viewBox="0 0 40 40" version="1.1" xmlns="http://www.w3.org/2000/svg" xmlns:xlink="http://www.w3.org/1999/xlink">
    <!-- Generator: Sketch 3.8.3 (29802) - http://www.bohemiancoding.com/sketch -->
    <title>priority</title>
    <desc>Created with Sketch.</desc>
    <defs></defs>
    <g id="Page-1" stroke="none" stroke-width="1" fill="none" fill-rule="evenodd">
        <g id="public_page_320" transform="translate(-268.000000, -263.000000)">
            <g id="1" transform="translate(12.000000, 192.000000)">
                <g id="priority" transform="translate(256.000000, 71.000000)">
                    <path d="M0,0 L34.9946779,0 C37.759041,0 40,2.23628439 40,5.00532213 L40,40 L0,0 Z" id="corner" fill="#EF4B2B"></path>
                    <path d="M28.4404914,14.7763769 L25.1425904,17.0712585 C24.2333248,17.7039812 23.7535928,17.3661903 24.0770367,16.2970884 L25.2404914,12.4514408 L22.0388219,10.024108 C21.1560883,9.35486715 21.3291012,8.79423173 22.4458271,8.77147457 L26.4627826,8.68961521 L27.781943,4.89455948 C28.1456492,3.84822317 28.7323091,3.83952232 29.0990397,4.89455948 L30.4182001,8.68961521 L34.4351556,8.77147457 C35.5426719,8.79404405 35.7322348,9.34930205 34.8421609,10.024108 L31.6404914,12.4514408 L32.803946,16.2970884 C33.1247225,17.3573734 32.6552189,17.7092426 31.7383923,17.0712585 L28.4404914,14.7763769 Z" id="star" fill="#FFFFFF"></path>
                </g>
            </g>
        </g>
    </g>
</svg>